<mxfile host="65bd71144e">
    <diagram id="LVtk7bsY1YIprPnr39kH" name="AXI">
        <mxGraphModel dx="423" dy="330" grid="1" gridSize="10" guides="1" tooltips="1" connect="1" arrows="1" fold="1" page="1" pageScale="1" pageWidth="1169" pageHeight="827" math="0" shadow="0">
            <root>
                <mxCell id="0"/>
                <mxCell id="1" parent="0"/>
                <mxCell id="2" value="&lt;h1&gt;SRAM_AXI&lt;/h1&gt;&lt;br&gt;Left for AXI&lt;br&gt;Right for SRAM" style="shadow=0;dashed=0;align=center;html=1;strokeWidth=1;shape=mxgraph.rtl.abstract.entity;container=1;collapsible=0;drawPins=1;leftArr=aclk%3Ac,aresetn%3An,%5B3%EF%BC%9A0%5D%20ar_id%3Ao,%5B31%EF%BC%9A0%5D%20ar_addr%3Ao,%5B7%EF%BC%9A0%5D%20ar_len%3Ao,%5B2%EF%BC%9A0%5D%20ar_size%3Ao,%5B1%EF%BC%9A0%5D%20ar_burst%3Ao,ar_valid%3Ao,ar_ready%3Ai,%5B3%EF%BC%9A0%5D%20r_id%3Ai,%5B31%EF%BC%9A0%5Dr_data%3Ai,r_last%3Ai,r_valid%3Ai,r_ready%3Ao,%5B31%EF%BC%9A0%5D%20aw_addr%3Ao,%5B2%EF%BC%9A0%5D%20aw_size%3Ao,%5B7%EF%BC%9A0%5D%20aw_len%3Ao,%5B1%EF%BC%9A0%5D%20aw_burst%3Ao,aw_valid%3Ao,aw_ready%3Ai,%5B31%EF%BC%9A0%5D%20w_data%3Ao,w_valid%3Ao,w_ready%3Ai,b_valid%3Ai,b_ready%3Ao;rightArr=%5B31%EF%BC%9A0%5D%20i_raddr%3Ai,%5B511%EF%BC%9A0%5D%20i_rdata%3Ao,i_rvalid%3Ai,i_rready%3Ao,%5B7%EF%BC%9A0%5D%20i_rlen%3Ai,%5B2%EF%BC%9A0%5D%20i_rsize%3Anc%3Ai,i_rlast%3Anc%3Ao,%5B31%EF%BC%9A0%5D%20d_raddr%3Ai,%5B511%EF%BC%9A0%5D%20d_rdata%3Ao,d_rvalid%3Ai,d_rready%3Ao,%5B7%EF%BC%9A0%5D%20d_rlen%3Ai,%5B2%EF%BC%9A0%5D%20d_rsize%3Anc%3Ai,d_rlast%3Anc%3Ao,%5B31%EF%BC%9A0%5D%20d_waddr%3Ai,%5B511%EF%BC%9A0%5D%20d_wdata%3Ai,d_wvalid%3Ai,d_wready%3Ao,%5B7%EF%BC%9A0%5D%20d_wlen%3Ai,%5B2%EF%BC%9A0%5D%20d_wsize%3Anc%3Ai,%5B3%EF%BC%9A0%5D%20d_wstrb%3Ai%3Anc,d_wlast%3Anc%3Ai;left=25;right=22;topArr=1,2,3,4;top=0;bottom=0;bottomArr=no%20pin%3Ano;topRot=240;topAnchor=right;bottomRot=30;leftRot=0;type=none;kind=sequential;pinSnap=5;pinFontSize=15;noLabel=0;" parent="1" vertex="1">
                    <mxGeometry x="220" y="210" width="760" height="920" as="geometry"/>
                </mxCell>
            </root>
        </mxGraphModel>
    </diagram>
</mxfile>